<svg xmlns="http://www.w3.org/2000/svg" width="17" height="18" fill="none" viewBox="0 0 17 18">
    <path fill="#000" d="M8.487 7.885c-.225 0-.44.09-.6.25-.159.159-.248.376-.248.602 0 .226.089.442.248.602.16.16.375.25.6.25.225 0 .441-.09.6-.25.16-.16.249-.376.249-.602 0-.226-.09-.443-.249-.603-.159-.16-.375-.25-.6-.25zm.425-7.67c3.819 0 3.912 3.042 1.91 4.048-.841.417-1.214 1.312-1.376 2.105.408.17.764.434 1.036.775C13.622 5.44 17 6.112 17 9.163c0 3.835-3.03 3.92-4.031 1.9-.425-.844-1.324-1.218-2.114-1.38-.17.409-.433.758-.772 1.048 1.689 3.144 1.018 6.528-2.02 6.528-3.82 0-3.896-3.051-1.893-4.057.832-.417 1.205-1.304 1.375-2.088-.416-.17-.78-.443-1.052-.784C3.36 12.018 0 11.353 0 8.31c0-3.834 3.021-3.928 4.023-1.908.424.843 1.315 1.21 2.105 1.372.161-.41.433-.767.78-1.04C5.22 3.59 5.89.214 8.913.214z" opacity=".7"/>
</svg>
